<!DOCTYPE svg PUBLIC "-//W3C//DTD SVG 1.1//EN" "http://www.w3.org/Graphics/SVG/1.1/DTD/svg11.dtd" [
	<!ENTITY ns_flows "http://ns.adobe.com/Flows/1.0/">
]><svg xmlns="http://www.w3.org/2000/svg" width="1024" height="466" viewBox="1 3 1024 466" overflow="visible" enable-background="new 1 3 1024 466"><path fill-rule="evenodd" clip-rule="evenodd" fill="#E4127D" d="M0 0h1025v468h-1025z"/><path fill-rule="evenodd" clip-rule="evenodd" fill="#D11272" d="M41.1 15.1h1l-1 5h1v1c5 0 11 .2 14.4-1v-13.1h13.4v-7h-21.6v13.1h-6.2v-13.1h-7.1v6c-3.9.7-3.3.7-7.2 0v-2h1c0-.6-.9-1.9-1-4h-20.6v10c-.3 1.4-1.2-.4-1 1h1v2h-7.2v28.1h14.4v-14c3.4-.1 8.5-.6 10.3 1 2.4-.2 2.5-.4 4.1-1l-1-6h7.2v-7h6.2v1zm-27.7 12h-6.2v-6h6.2v6zm7.2-7h-6.2v-6h6.2v6zm7.2-7h-6.2v-6.1h6.2v6.1zm5.1-12.1v-1h-2.1c1.2 1.1 0 .4 2.1 1zm41.1 49.2c8.8.1 21.8 1.5 28.8-1v-4h2.1v-11c-3.2 0-5.3-.3-7.2-1 0-2.9.4-4.3 1-6h6.2v-7c-3.2 0-5.3-.3-7.2-1v-19.2h-21.6v13.1h-13.4v8c5 0 11 .2 14.4-1v-6h6.2c0 3.1.3 5.2 1 7 4.2 0 8.6 0 11.3 1v-2h2.1v7h-7.2v4h-23.7c0 12.6-1.4 29.9 0 39.2h7.2c.3-4.9 0-12.6 0-20.1zm16.5-37.1h-6.2v-6.1c1.8.1 3.8 1 4.1 1v-1h2.1v6.1zm5.1 21h2.1v2h-2.1v-2zm-21.6 6.1v-4h7.2v7h-6.2v-1h-1l1-2h-1zm30.9-28.1v2h6.2c0 3.1.3 5.2 1 7 3.2 0 5.3-.3 7.2-1v-20.1h-14.4v10c-.1.3-1.3.3-1 2h1zm15.4-12.1v16.1h1c1.1-1.8-.4-15.5-1-16.1zm5.1 1v-1h-2.1c1.2 1.1.1.4 2.1 1zm55.5 5c-1.6.6-1.7.8-4.1 1l1-3h-1v-1h-1v3h-1v-6h-7.2v7h-2.1v-1c-1.5-.1.4.9-1 1-2.5.2-2.6-.5-4.1-1v-6h-14.4v5s-3.9-.1-2.1 1h2.1v1h-5.1c-.6-4.1-.4-2.5 0-7h-9.3c.5.5 2.1 4.4 1 6h-1v1l-5.1-1c-.9 1.1.1.2-1 1v7h7.2v-1l6.2-5h1v3h-1l1 3h13.4c0 3.1.3 5.2 1 7h6.2v-7h21.5v-6h-1v-2zm-20.5 7.1h-6.2v-6.1h6.2v6.1zm19.5-13.1v2h1c-.6-2 .2-.9-1-2zm-147 4h1c-.6-2 .1-.9-1-2v2zm148 1v-1h-2.1c1.2 1.1.1.4 2.1 1zm-176.8 7.1h1v-4.1h-1l-1 2v1h1v1.1zm21.6-4.1h-1v3h1v-3zm129.5 1v2h1c-.6-2 .2-.8-1-2zm-108.9 1h-2.1v2h2.1v-2zm40.1 0v2h1c-.6-2 .1-.8-1-2zm49.3 2.1v2h1c-.6-2 .2-.9-1-2zm-96.6 3h-1l-1 3h1l1-2v-1zm67.8 3h-3.1v1h3.1v-1zm-10.3 6c-.6-2 .1-.9-1-2v2h1zm23.7 0v-1h-2.1c1.2 1.1 0 .4 2.1 1zm39 0v-1h-2.1c1.3 1.1.1.4 2.1 1zm-147 1v-1h-2.1c1.2 1.1.1.4 2.1 1zm83.3 0v-1h-2.1c1.2 1.1 0 .4 2.1 1zm-23.6 1c.9 1.1-.1.2 1 1v-2h-2.1c.9 1.1-.1.2 1.1 1zm52.4 0h3.1v-1h-3.1v1zm-108 3h8.2v-1h-8.2v1zm56.6 0l-1 1h2c-.6-2 .1-.9-1-2v1zm-3.1 0h-4.1v1h4.1v-1zm55.5 1v-1h-2.1c1.2 1.1.1.5 2.1 1zm2.1 0h4.1v-1h-4.1v1zm-93.6 2v-1h1v-1h-2.1c.7 2 0 .9 1.1 2zm19.6 24.1v-25.1h-14.4c-.1 8.1-1.4 19.8 1 26.1 4.7.1 10.2.2 13.4-1zm103.8-14c-1.8.8-3.2.9-6.2 1v-12.1h-14.4v5h-6.2c.2-2.4.4-2.5 1-4l-1-1c-3.7 0-5.8.1-8.2 1l1 4h6.2v7h-6.2c-.9 4.9-1.2 12.5-1 21.1 4.4-.4 3.2-.6 7.2 0 .7-1.9 1.1-3.9 1-7h6.2v6h1v1c2.5-1.2 10.1-.5 13.4 0v-7c3.4-.1 4.7-.6 7.2-1 .1-3.8.9-11-1-13.1v-.9zm-6.2 14h-13.4v-8h-1l1-2h-1v-1h1v-2c4.7 0 10.2-.2 13.4 1v12zm-46.2-23.1v-1h-2.1c1.2 1.2 0 .5 2.1 1zm-26.8 7.1h-2.1v2h2.1v-2zm75.1 0v1h3.1v-1h-3.1zm10.3 3v2h1c-.6-2 .1-.9-1-2zm-151.2 13c.6-.2 3.1.7 2.1-1h-1v-1h1c0-3.1-.3-5.2-1-7h-13.4v8c3.7-.1 10.3-.8 12.3 1zm3.1-6v2h1c-.6-2 .2-.8-1-2zm83.3 2v2c2.1-.6.9.1 2.1-1h-1v-1h-1.1zm-17.5 32.2h6.2v1h1c-.8 2.6-2.2 9.6 0 12.1.7.7 0 1.4 2.1 1v-1h1v1c2.4-.2 2.5-.4 4.1-1v-20.2h-7.2v-21.1h-7.2v14.1h-7.2v7h7.2v7.1zm20.6-28.2h-6.2c-1.2 3.1-1.3 4.9 0 8 3.2 0 5.3-.3 7.2-1 0-3-.3-5.1-1-7zm3.1 0h-1v3h1v-3zm-12.4 1v2h1c-.6-2 .2-.8-1-2zm-51.4 1v1h8.2v-1h-8.2zm39.1 7.1v-6h-1v6h1zm-28.8-4v-1h-2.1c1.2 1.1 0 .4 2.1 1zm84.3 0v-1h-2.1c1.2 1.1 0 .4 2.1 1zm-43.2 3h1v-3h-1v3zm11.3 0h1v-3h-1v3zm-31.8 8h1v-1h-3.1l-1 2c1.9.7 2.5-.5 3.1-1zm7.2 26.1h2.1v-7h1v-1h-8.3v-13.1h-7.2v14.1h7.2v6h-7.2v4h-1v1h1v2h7.2v-6h4.1v-1h1v1zm0-18.1v-1h-2.1c1.2 1.2 0 .5 2.1 1zm6.1 5.1v2h1c-.6-2 .2-.9-1-2zm174.8 3h-3.1v1h3.1v-1zm178.9 0h-3.1v1h3.1v-1zm60.6 0h-3.1v1h3.1v-1zm158.3 5v2h1c-.5-2 .2-.9-1-2zm-394.7 1h-7.2v34.1h7.2v-34.1zm173.7 0c-.1 1.8-1.1 3.6-1 4h1v3h15.4c-.7-3.8-.7-3.2 0-7h-15.4zm63.8 0h-7.2v7h8.2c-.7-1.8-1.1-3.9-1-7zm69.9 0h-14.4v7h14.4v-7zm90.4 34.1h7.2v-14.1h-7.2v-6h7.2v-14h-8.2c.5 2.8 1.3 4.4 0 6v1l-2.1-1v1c-2.4-.2-2.5-.4-4.1-1v-6h-7.2v21.1h13.4c.7 3.5 1.1 8.2 1 13zm265.3-27.1v-7h-7.2v1h-1c.8 1.7.9 3.2 1 6h7.2zm55.5-7h-7.2v7h7.2v-7zm-829.6 2v2h1c-.6-2 .1-.8-1-2zm763.8 4l1-3-3.1-1c.6 1.5.8 1.6 1 4h1.1zm12.3-4v2h1c-.6-2 .2-.8-1-2zm-777.2 1h-7.2v7h7.2v-7zm-52.4 2v-1h-2.1c1.2 1.1 0 .4 2.1 1zm-17.5 0h-2.1c1.2 1.1 0 .4 2.1 1v-1zm892.4 2h-1v3h1v-3zm-537.7 1v2h1c-.6-2 .2-.8-1-2zm61.7 2v-2h-3.1c1.2 1.7.6 1.4 3.1 2zm-398.9-1l-10.3 1v1h-1c.6 3.5 1 1.9 0 5 2.3.9 4.5 1.1 8.2 1v-7h3.1v-1zm469.8 1h3.1v-1h-3.1v1zm-449.2 7.1c2.4-.3 2.7.5 4.1 1 1-3 .2-3.9 0-8h-7.2c-.1 3.3-.6 4.5-1 7h3.1v1c1.4.2-.5-.8 1-1zm10.2 0c3.7 0 5.8-.1 8.2-1v-4h-1v-1l1-1h-8.2v7zm541.8-5h1v-2h-2.1v1h1v1zm-107.9 9h7.2c0-3.6-.1-5.7-1-8-3.2 0-5.3.3-7.2 1l1 3h-1c.2 2.3.4 2.5 1 4zm-423.6-4h-2.1c1.2 1.1 0 .4 2.1 1v-1zm182 1h-1v6h1v-6zm18.5 1v-1h-2.1c1.2 1.1 0 .4 2.1 1zm95.6 0v-1h-2.1c1.2 1.1 0 .4 2.1 1zm229.2 0v-1h-2.1c1.3 1.1.1.4 2.1 1zm-339.2 9c5 0 11 .2 14.4-1 0-3.1-.3-5.2-1-7h-13.4c0 3.1-.3 5.2-1 7l1 1zm42.1 0c3.2 0 5.3-.3 7.2-1v-7c-3.7 0-5.8.1-8.2 1 .4 4 1 2.9 0 6l1 1zm10.3-8h-1v3h1v-3zm52.5 1h-1l1 2s-1 .1-1 2h1v1l-1 1c2.4.9 4.5 1.1 8.2 1v-8h-7.2v1zm13.3-1c0 3.6.1 5.7 1 8h6.2v-1h1c-1.5-3.2-.5-2.7 0-6-2.3-.9-4.5-1.1-8.2-1zm-304.3 5v-3h-1v3h1zm519.2 0v-3h-1v3h1zm-605.5 6c3.2 0 5.3-.3 7.2-1v-7c-3.7 0-5.8.1-8.2 1 .4 2.5.9 3.7 1 7zm84.3-4c-.2-2.4-.4-2.5-1-4h-6.2c-1.2 3.1-1.3 4.9 0 8h6.2v-1c.7-.7 1.4 0 1-2h-1v-1h1zm289.9-3v2h1c-.6-2 .1-.8-1-2zm2 5v-1h-2.1c1.2 1.1.1.5 2.1 1zm-373.2 3v1h-1v1h2.1c-.6-2 .1-.8-1.1-2zm-3 2v-1h-2.1c1.2 1.2 0 .5 2.1 1zm867.6 4.1v-1h-2.1c1.2 1.1.1.4 2.1 1zm0 2h-1v1c-2.6 1-1.2 2.3-1 7h7.2v-6h1v-1h-6.2v-1zm7.2 2v2h1c-.6-2 .2-.9-1-2zm-798.8 9v-1c-3 1.3-3.2 1-6.2 0v1h-1c0 3.1.3 5.2 1 7h7.2c.5-3.7 1.7-4.7-1-7zm796.8 3h-7.2v8c1.8-.1 3.8-1 4.1-1v1h2.1c.8-2.2 1-4.4 1-8zm-374.2 12.1h-1v5h1v-5zm-288.9 2h-7.2v7h7.2v-7zm300.2 0h-7.2v14.1h7.2v-14.1zm-474 1v2h1c-.6-2 .2-.9-1-2zm-1 2h-7.2v7h7.2v-7zm166.6 6h3.1v-1h-3.1v1zm8.2-1h-2.1c1.2 1.1 0 .4 2.1 1v-1zm301.2 4h1c-.6-2 .1-.9-1-2v2zm-1 9.1h-1c1.4 2.9 1 3.2 0 6 3.4 1.3 9.5 1.1 14.4 1v6h7.2v-7h-6.2c0-3.1-.3-5.2-1-7-3.9-.1-11.3-.9-13.4 1zm16.4 3v2h1c-.6-2 .2-.9-1-2zm-18.5 6h1c-.6-2 .1-.9-1-2v2zm45.2 3v-1h-2.1c1.3 1.2.1.5 2.1 1zm35 0v-1h-2.1c1.2 1.2 0 .5 2.1 1zm-43.2 8.1h7.2v-7h-8.2l1 3h-1c.2 2.3.4 2.4 1 4zm27.8 13v-6h7.2v-7h7.2v-7h-15.4c1.2 3.1 1.1 8.5 1 13.1h-7.2v-7c-3.6.5-3.3.4-7.2 1 0 4.8-.3 10.7 1 14.1 4.7-.1 10.2 0 13.4-1.2zm-18.5-18.1v2h1c-.6-1.9.1-.8-1-2zm-18.5 5.1h-5.1v7h7.2c0-3.1.3-5.2 1-7h-2.1v-1l-1 1zm19.5 2v3h1v-3h-1zm2.1 11v-8h-1v8h1zm63.7-8h-1v3h1v-3zm-104.9 2c0 3.1.3 5.2 1 7 3.4-.1 4.7-.6 7.2-1 0-3.1-.3-5.2-1-7-3.1 0-5.2.3-7.2 1zm36 6v-7c-3.7 0-5.8.1-8.2 1 0 3.1.3 5.2 1 7 3.2 0 5.3-.3 7.2-1zm62.7 0v-7h-21.6c0 3.6.1 5.7 1 8 7.1 0 15.1 0 20.6-1zm-83.2-5h-2.1c.6 2-.1.9 1 2v-1h1v-1zm7.2 1v-1h-2.1c1.2 1.1 0 .4 2.1 1zm-3.1 3h-4.1v1h4.1v-1zm-324.9 9.1h6.2v-7h1v-1h-8.2c0 3.5.1 5.6 1 8zm718.6 0v-1h-8.2v14h7.2c-.1-3.8-.9-11 1-13zm-624 0h-3.1v1h3.1v-1zm628.1 0h-1v8h1v-8zm-66.8 3v1h3.1v-1h1v-1h-2.1c-1.1 1.1.1.4-2 1zm6.2 10v-7c-2.9 0-4.4-.4-6.2-1l-1 2h-1c.8 1.7.9 3.2 1 6h7.2zm-565.5-7h-7.2v7h7.2v-7zm555.2 1c-.6 1.5-.8 1.6-1 4h1c.3-.9 1.9-2.2 1-4h-1zm-763.8 1h-1v8h7.2v-7h-6.2v-1zm7.1 1v2h1c-.5-2 .2-.9-1-2zm814.3 4h-1v3h1v-3zm-810.1 1v2h1c-.6-2 .1-.8-1-2zm814.2 1h-1v1h2.1c-.6-2 .1-.9-1-2v1zm-828.6 0l-1 1h-4.1v6h-7.2v8h7.2v-7h6.2v1h1v1c-2.4 1.4.1 1.3 0 3-.9 1.1-.7-.4-1 1 2.4.9 4.5 1.1 8.2 1v-8c-1.8.1-3.7 1-4.1 1v-1h-3.1v-6h-2.1v-1zm-110 8.1h7.2v7h7.2v-14.1h-14.4v7.1zm978.7-6.1v-1h-2.1c1.2 1.2 0 .5 2.1 1zm-104.9 1v-1h-2.1c1.2 1.2 0 .5 2.1 1zm-803.9 1h-1v-1h-1v2c2-.6.8.2 2-1zm-76.1 4.1h1v-4h-1v4zm879 14h1v-1h-1v-2c3.3-.5 3.3-1.6 5.1 1h3.1v-1h-1l1-1v-1h-1v-5h7.2v-8h-7.2v7h-6.2v-1h-1l1-5c-2.3-.9-4.5-1.1-8.2-1 0 3.6.1 5.7 1 8h6.2v6h-3.1v-1l-3.1 1v-1h-1v8h8.2l-1-3zm36-13s-1.3-.4-1-2h1v-1h-1v-2h-7.2v8h7.2c.3-1 .6-2 1-3zm6.1 3h7.2v-8h-7.2v5h-1v1h1v2zm27.8-1h1c-.9-1.9-.9-3.9-1-7h-14.4v8c4 .1 12.2 1 14.4-1zm6.2-2l1 3h7.2v-8h-7.2v1h-1c.3.8 2 2.3 1 4h-1zm28.7 2v-7h-7.2c-.1 4-1 11.9 1 14.1v1c3.7-1.4 8.7-1.3 12.3 0 .9-2.3 1.1-4.4 1-8h-7.1zm-942.7-6.1h-3.1v1h3.1v-1zm-7.2 10.1h7.2c.5-3.4.1-4.3 1-7h-1v-1c-3.2 0-5.3.3-7.2 1v7zm14.4-7h-1c.9 1.9.9 3.9 1 7h14.4c0-3.6-.1-5.7-1-8-3.9-.1-11.3-.9-13.4 1zm20.6-1v8h7.2c0-3.1.3-5.2 1-7-2.3-.9-4.5-1.1-8.2-1zm14.4 1h-1c1.4 2.9 1 3.2 0 6 2.3.9 4.5 1.1 8.2 1v-8h-7.2v1zm890.3-1v1h-1v1h2.1c-.7-2 0-.9-1.1-2zm-930.4 2v2h1c-.6-2 .1-.9-1-2zm71.9 0v2h1c-.6-2 .2-.9-1-2zm-106.9 8h1v-6h-1v6zm686.8 1v1h1v-1h2.1v-7h-7.2v8c1.3-.5 1.7-1.4 4.1-1zm179.9-5v2h1c-.6-2 .1-.9-1-2zm-853.3 4h1v-3h-1v3zm24.7-2v2h1c-.6-2 .1-.9-1-2zm19.5 0v2c2.1-.6.9.1 2.1-1h-1c-1-1.1.1-.2-1.1-1zm46.3 0v1l-1 1h2.1c-.7-2 0-.9-1.1-2zm-94.6 2v-1h-2.1c1.2 1.1 0 .4 2.1 1zm54.5 0h3.1v-1h-3.1v1zm38 1v-1l-3.1-1v1h-1c.8 1.5 1.9.9 4.1 1zm588 2v-1h-2.1c1.2 1.1.1.4 2.1 1zm-642.5 15.1v-14.1h-6.2v-1h-1c0 4.8.3 10.7-1 14.1 2.3.8 4.5 1 8.2 1zm48.3-7.1h1v1l5.1-1v1h1v-8h-7.2v7zm874.9-6v-1h-2.1c1.2 1.1 0 .4 2.1 1zm-932.4 11.1h1v-8h-1v8zm621.9 87.3h1v-1c-2.6-1.2 1.6-1.2 0-4h-1v-2c-4.9 1.8-14 1.1-20.6 1v13.1h-7.2c0-4.6-.2-9.9 1-13.1h-1v-1c-1.9.9-4 .9-7.2 1v6h-2.1v1c-.6 0-1.9-.9-4.1-1v-6h-21.6v6h-6.2v-1h-1c1.5-2.2.4-2.3 0-5 3-1.1 3.1-1.2 6.2 0 3-7.9 1.1-31.5 1-42.2h-7.2v-6h7.2v-17.1h-12.3v-11h-13.4v14.1h-22.6v-7h1v1c2.2-1.5 2.4-.4 5.1 0v-8h-20.6v21.1h-3.1v-2s-4 .1-2.1 1c.2 1.4 1-.4 1 1h-2.1c-.6-2 .1-.9-1-2v-6c-3.4 1.3-9.5 1.1-14.4 1v6h-1v1c-2.1-1.3-2.1-.7-4.1 0-.7-1.7-1-3.2-1-6h3.1c.9-1.1-.1-.2 1-1l-1-6h-7.2v6h-24.7v6h-1c-.4.4.3 1.7-1 1v-1c-2.1.3-.9.1-2.1 1h-1l1-2h-1.8v9h6.2l-1 4 2.1 1v2h-2.1v1l8.2-1v6h-7.2v7h7.2v7l-1-1h-1v1h-5.1c.1 4.8 1.1 20.8-1 23.1 1.2 1.1 0 .4 2.1 1l-1 3h1c1.3 1.1 3.4.3 6.2 0v20.1h-7.2v4c-.3 1.4-1.2-.4-1 1h1v9c3.7 0 5.8-.1 8.2-1v-12.1h13.4c.1 3.6.8 10.1-1 12.1v1c-2.2 1.1-3-1.2-4.1-1v1h-7.2v-1h-1l-1 2h-2.1c1.2 1.1 0 .4 2.1 1v5h14.4v-7h7.2v7h7.2v-21.1h-7.2v-6h7.2v-14.1h-7.2v-7h20.6c-.1 1.8-1.1 3.6-1 4h1v3h7.2v-10h1v-1h-1v-2h7.2c-.1 7.4-1.8 23.1 0 25.1v1h-7.2v14.1h27.8v20.1h-7.2l1-6h-1v-1h1v-1c-.8-1.2-1.1.4-1-1h1v-4h-1v-1c-1.9.9-4 .9-7.2 1v20.1c-3.2 0-5.3.3-7.2 1 .1 7 2 13.9 0 19.1 2.3.9 4.5 1.1 8.2 1v-14.1h7.2c-.1-1.7-1.1-3.7-1-4h1v-2c1.8-.1 3.8-1 4.1-1v1h2.1v13.1h-7.2v7h7.2v7c3.4-.1 4.7-.6 7.2-1v-7h-7.2c.6-3.5 1-1.9 0-5 1.9-.7 4-1 7.2-1v-14.1c-3.2 0-5.3-.3-7.2-1v-5h7.2v-41.2h12.9c-.1 5.1-1.2 23.7 1 26.1v1h5.1c-1.2 1.1 0 .4-2.1 1 1.6 1.3 12.7.1 17.5 0v-14.1h-7.2v-6l6.2-1c.9 1.1-.1.2 1 1v6h14.5v-6c3.2 0 5.3-.3 7.2-1l-1-6h2.1v1h1v-1h4.1v7c3.9.1 11.3.9 13.4-1 1.9-2.1 1.2-9.3 1-13.1h1v8h1v-8c3.6.1 9.5.7 11.3-1zm-174.7-55.2h-6.2v-6h6.2v6zm7.2 0c-.1-1.4.2.2 1-1l-1-4c1.9-.7 4-1 7.2-1v13.1h-6.2v-1h-1l1-3h-1c-.3-1.6 1-1.9 1-2v-1h-1zm6.1 28.1c-1.8-.1-3.7-1-4.1-1l-1 1c-.8-2.4-.8-10.8 0-14.1h5.1c.9 1.1-.1.2 1 1 .1 4.7.2 10-1 13.1zm7.2 40.2h-6.2c0-2.9.4-4.3 1-6-1.3-.5-2.7-1.7-5.1-1v1h-1v-1h-1v-1h-1l1-4h-1c-.4-2.2 1-3 1-3v-13.1h-1l1-5h6.2v20.1h6.2c.9 1.1-.1.2 1 1 0 4.3 0 9.1-1.1 12zm1-47.2v-6h1v-1c2.1 1.3 2.1.7 4.1 0 .7 1.9 1.1 3.9 1 7h-6.1zm6.2-14.1h-6.2v-6h6.2v6zm14.4 20.1l-6.2 1v-7c2.9 0 4.4.4 6.2 1v5zm0-13h-6.2v-6h2.1v1c.6 0 1.9-.9 4.1-1v6zm35-20.1h7.2v6h-7.2v-6zm-27.8 40.2h-6.2c-.6-3.7-.6-2.3 0-6h6.2v6zm13.4-20.1h-13.4v-6h7.2v-7h6.2v13zm1 41.1h2.1v1h1v-1l3.1 1v6l-6.2-1v-6zm13.4 20.1h-6.2v-1h-1c1.4-2 .7-2 0-4 1.9-.7 4-1 7.2-1v6zm0-20.1h-6.2v-7h6.2v7zm0-14h-6.2v-6h6.2v6zm0-7v-6h7.2v6h-7.2zm13.3 17v4h-6.2v-7c2.2.1 3.5 1 4.1 1v-1h2.1c-.8 1.3-.7 1.2-2.1 2 1.2 1.1.1.4 2.1 1zm0-30.1h-6.2v-6h1v-1h2.1l-1 2h2.1v-2c2.1.6.9-.1 2.1 1h1c-1.4 2.8-.9 2.4 0 5h-1v1zm7.2 27.1c-1-.8-1-1.2-2.1-2v2l-3.1-1-1 1v-6h6.2v6zm0-61.3h-6.2v-7l5.1 1v-1h1v7zm1.1 27.2h6.2v7h-6.2v-7zm0 27.1v-6h6.2v6c-3.9-.6-2.4-.6-6.2 0zm27.7 27.1h-1v1h-6.2v-6h6.2v1h1c-1.4 2-.7 2 0 4zm6.2-6h-6.2v-6c1.8.1 3.8 1 4.1 1v-1h2.1v6zm-585-88.4v2c2.1-.6.9.1 2.1-1h-1c-.9-1.1.1-.2-1.1-1zm13.4 2h3.1v-1h-3.1v1zm680.5 2h-3.1v1h3.1v-1zm5.2 0h-3.1v1h3.1v-1zm0 2h-8.2v7h8.2v-7zm-277.6 5v-1h-2.1c1.2 1.2.1.5 2.1 1zm22.6-1v2h1c-.6-2 .2-.8-1-2zm41.2 1v-1h-2.1c1.2 1.2 0 .5 2.1 1zm62.7 0v-1h-2.1c1.2 1.2 0 .5 2.1 1zm-122.4 2h-8.2v7h7.2v7h7.2v-8c-1.8.7-3.2 1-6.2 1v-7zm-45.2 5.1v2h1c-.6-2 .2-.9-1-2zm11.3 0v2h1c-.6-2 .2-.9-1-2zm7.2 1v-1h-2.1c1.2 1.1 0 .4 2.1 1zm15.4 0c.9 1.1-.1.2 1 1v-2h-2.1c1 1.1 0 .1 1.1 1zm18.5-1v2h1c-.6-2 .2-.9-1-2zm5.2 1v-1h-2.1c1.2 1.1 0 .4 2.1 1zm-55.5 8h8.2v-2h-1v-1h1v-4c-3.2 0-5.3-.3-7.2-1-.9 2.3-1.1 4.4-1 8zm21.5-8c-1.9.7-4 1-7.2 1v7h7.2v-8zm2.1 0h-1v3h1v-3zm15.4 3v-1h-2.1c1.2 1.1.1.4 2.1 1zm-26.7 0v2h1c-.6-2 .2-.9-1-2zm41.1 0v2h1c-.6-2 .2-.9-1-2zm14.4 2v-1l1-1h-2.1c.7 2-.1.9 1.1 2zm-45.2 0v2h1c-.6-2 .1-.9-1-2zm16.4 2v-1h-2.1c1.2 1.1.1.4 2.1 1zm146 1h-2.1v2h2.1v-2zm-180.9 3h-2.1c1.2 1.1 0 .4 2.1 1v-1zm123.3 0v2h1c-.6-2 .2-.8-1-2zm2.1 0v2h1c-.6-2 .2-.8-1-2zm53.4 3h2.1v-2h-2.1v2zm-76 6.1h2.1v-2h-2.1v2zm24.6-1h-1c-.9-1.1.1-.2-1-1v2c2-.6.9.1 2-1zm-38 7h1v-3h-1v3zm431.8 2h-7.2v7h7.2v-7zm-969.5 29.1v-1h2.1c0-4.8.3-10.7-1-14.1h-6.2v-6h7.2v-7c-2.6-.1-7.2-.5-8.2 1-.3.5 1.6 2.2 1 4 0 0-.8 0-1 2h-2.1v-1c-.6 0-1.9.9-4.1 1v7h7.2v4c-.2 1.4-1.2-.4-1 1l1 1h-7.2v7h10.3c.2.2.3 1.4 2 1.1zm554.2-26.1v-1h-2.1c1.2 1.1 0 .4 2.1 1zm-566.5 0v2h1c-.6-2 .2-.8-1-2zm970.5 3h1c-.6-2 .1-.9-1-2v2zm-960.2 5v-1h-2.1c1.2 1.2 0 .5 2.1 1zm967.4 0v-1h-2.1c1.2 1.2 0 .5 2.1 1zm-961.3 3.1v-1h-2.1c1.3 1.1.1.4 2.1 1zm522.3 1v1h-1v1h2.1c-.7-2 .1-.9-1.1-2zm62.7 0h-2.1v3h2.1v-3zm27.8 0v2h1c-.6-2 .1-.9-1-2zm-492.5 9h7.2v-8h-7.2v8zm-132.6-4v-1h-2c1.1 1.1-.1.4 2 1zm935.5 0c-3.2 0-5.3.3-7.2 1v6h8.2c.1-3.1-.2-5.1-1-7zm-359.8 5l-1 2h3.1s-.3-.9-2.1-2zm-442 2v1h4.1v-1h-4.1zm599.3 22.1c-1.9-.7-4-1-7.2-1v-20.1c-4.6.1-18.3 1-20.6-1h-1v14.1c-5 0-11-.2-14.4 1 0 3.1.3 5.2 1 7h13.4v-7c1.8.1 3.8 1 4.1 1v-1h2.1c.9 2.7.5 3.7 1 7h9.3v-1h1v1h3.1v6h-7.2v7h7.2v-1h1c-.3-.8-2.1-3.1-1-5h1v-1h1v7h-2.1v6l-2.1-1v1h-4.1c-.9 1.1.1.2-1 1v6c2.1.6.9-.1 2.1 1 7 .1 9.3-.2 12.3-4 1.2-1.4.2-6.6 0-11h2.1v-7l-2.1-1c-.6-2.1.7-2.9 1.1-4zm-15.4-8h-6.2c0-2.9.4-4.3 1-6 1.8.1 3.7 1 4.1 1l1-1v6zm84.3-6.1v-7h-7.2v6h-1v1l-4.1-1v1h-1v-7c-3.9.1-11.3.9-13.4-1-2.6 1-1.2 2.3-1 7h-1v1l-6.2-1v-6h2.1v-1c-3 .4-6 2-8.2 0h-1v8c-3.9-.7-3.3-.7-7.2 0v6h1v2h1v-1c6.2.2 9.2-1.3 10.3-6h2.1v6h14.4c-.6 2 .1.9-1 2 .1 2.6.4 3.4 1 5 3.2 0 5.3-.3 7.2-1v-6h20.6v-7c-4.4-.6-2.8-.3-7.4 0zm-14.4 6.1h-6.2v-6l5.1 1v-1h1v6zm-189.2-12.1l-3.1-1v2h3.1v-1zm133.7 13.1h7.2v7c3.2 0 5.3-.3 7.2-1v-20.1h-14.4v14.1zm-727.9-11.1h8.2v-2c-2.7.5-4.5 1-8.2 1v1zm542.8-1h4.1v-1h-4.1v1zm8.3 0v-1h-2.1c1.2 1.1 0 .4 2.1 1zm-422.6 7.1h7.2v-7h-7.2v7zm413.3-6.1h-1v1h2.1c-.6-2 .1-.9-1-2v1zm84.3 1h1c.1.1-.1 1.9 1 1v-1c1.8-1.3.2-.9-1-2-.3.7-.7 1.4-1 2zm137.8 0h1c-.6-2 .1-.9-1-2v2zm23.6-1v-1h-2.1c1.2 1.1 0 .5 2.1 1zm-193.3 1v-1h-2.1c1.2 1.2.1.5 2.1 1zm173.8-1v2h1c-.6-2 .1-.8-1-2zm-216.9 3v-2h-3.1c.9 1.1 1.7 1.4 3.1 2zm41.1-1v-1h-2.1c1.2 1.2 0 .5 2.1 1zm76.1 0v2h1c-.6-2 .1-.8-1-2zm-665.2 2h3.1v-1h-3.1v1zm283.7 1h1v-1h3.1v-1h-7.1v1h3.1v1zm180-1h-8.2c.5 3.4.1 4.3 1 7h7.2v-7zm70.9 8.1h1v-8h-1v8zm10.3 0h1v-8h-1v8zm-80.2-4h1c-.6-2 .1-.9-1-2v2zm115.1-2v2h1c-.6-2 .2-.9-1-2zm63.8 1v2h1c-.6-2 .1-.9-1-2zm-194.3 4h1v-3h-1v3zm308.4 0h1v-3h-1v3zm-35-1v2h1c-.6-2 .2-.9-1-2zm-174.7 5v-3h-1v3h1zm90.4 0h1v-3h-1v3zm40.1 0h1v-3h-1v3zm23.7 0v-3h-1v3h1zm-135.7 0h3.1s-.3-.9-2.1-2c-.4.7-.7 1.3-1 2zm69.9-1c.9 1.1-.1.2 1 1v-2h-2.1c.9 1.1-.1.1 1.1 1zm20.5 3h1v-3h-1v3zm343.4-2v-1h-2.1c1.2 1.1 0 .4 2.1 1zm-82.2 2v-1h-3.1l-1 3 1 1h-1c.2 2.4.4 2.5 1 4 1.8-.1 3.8-1 4.1-1v1h2.1c.9-1.1-.1-.2 1-1v-6h-1v-1c-1.1.3-2.1.7-3.1 1zm80.1-1h-4.1v1h-1v-1h-2.1v8c3.7 0 5.8-.1 8.2-1-.3-2.3-.6-4.7-1-7zm-459.5 2v2h4.1v-1h-3.1c-1.3-.6.4-.5-1-1zm90.5 1v2h1c-.6-2 .1-.8-1-2zm4.1 1v-1h-2.1c1.2 1.1 0 .4 2.1 1zm17.5 0h3.1v-1h-3.1v1zm62.7-1v1h3.1v-1h-3.1zm-454.4 4h-4.1l1-3h-2.1v3h-2.1v7h1v1l3.1-1v1h2.1c.9-2.2 1.1-4.4 1.1-8zm20.5-3h-4.1v1h4.1v-1zm704.2 3h2.1v-3h-2.1v3zm-271.4-2v2h1c-.5-2 .2-.8-1-2zm-353.6 1h-4.1v1h4.1v-1zm-81.2 10.1c1.4-.2-.4-1.1 1-1l1 1c.9-2.3 1.1-4.4 1-8h-7.2v5h-1l1 3h4.2zm73 0s5.6-.9 7.2-1v-7c-3.7 0-5.8.1-8.2 1v6h1v1zm-66.9-4.1h1v-3h-1v3zm716.6-2v-1h-2.1c1.2 1.2 0 .5 2.1 1zm-654.9 4.1h1v-4h-1v4zm172.7-3.1c.9 1.1-.1.2 1 1v-2h-2.1c1 1.2 0 .2 1.1 1zm8.3-1v2h1c-.6-2 .1-.8-1-2zm-8.3 2h-1v8h1v-8zm26.8 8.1h1v-8h-1v8zm90.4 0h1v-8h-1v8zm301.3-4h1v-4h-1v4zm-14.4-2h-8.2v2h1v1h-1v4h8.2v-7zm6.1 0v7c3.2 0 5.3.3 7.2 1v-1h1c-.9-1.9-.9-3.9-1-7h-7.2zm36 1c-2.3-.9-4.5-1.1-8.2-1v7h8.2c-.6-3.5-1.2-2.8 0-6zm-23.6 1v2h1c-.6-2 .1-.9-1-2zm-4.1 2v2h1c-.6-2 .1-.9-1-2zm-586 2h3.1v-1h-3.1v1zm-287.9 0v2h1c-.6-2 .2-.9-1-2zm5.2 3h1v-3h-1v3zm214.8 1v-4h-1v4h1zm4.1-3h3.1v-1h-3.1v1zm79.2 7v-1h-2.1v-6h-1v-1h-1v1c-2.9 0-4.4.4-6.2 1 .1 1.8 1.1 3.6 1 4l-1 1 1 1h9.3zm198.4-7v7h7.2v-7h-1v-1c-1.8.8-3.3.9-6.2 1zm335.1-1h-1v3h1v-3zm1.1 8h7.2v-8c-1.9.7-4 1-7.2 1v7zm77.1 6v-6h7.2v-8l-1 1h-6.2v1h-1c.8 1.6.9 2.4 1 5l-7.2 1v7c3.2 0 5.3.3 7.2 1v12.1h7.2c0-4.8.3-10.7-1-14.1h-6.2zm-402-13v2h1c-.6-2 .2-.9-1-2zm128.5 3h1v-3h-1v3zm-423.5-2h-7.2v7h7.2v-7zm6.1 0v7h8.2c-.6-4.1-.4-2.5 0-7h-8.2zm27.8 7h8.2v-7h-8.2v7zm196.3-7h-4.1v1h4.1v-1zm61.7 0v4h1v-4h-1zm-205.6 1h-2.1v2h2.1v-2zm165.5 1h-1c-.9-1.1.1-.2-1-1v2c2-.6.9.1 2-1zm402 0v-1h-2.1c1.2 1.1 0 .4 2.1 1zm-864.6 7h7.2v-7h-7.2v7zm55.5 0h7.2v-7h-7.2v7zm506.9-6h-1c-.9-1.1.1-.2-1-1v2c2-.6.8.1 2-1zm266.2 3h1v-3h-1v3zm64.8-1h4.1v-2h-5.1c.3.7.6 1.3 1 2zm-450.3 0v-1h-2.1c1.2 1.1 0 .4 2.1 1zm19.5 1v-1h-2.1c1.2 1.1.1.4 2.1 1zm40.1 8.1h1c1.3-2-.3-8.4-1-9v9zm397.9 5h-7.2v-4h1v-1h-1v-8h-1v-1l-3.1 1v-1h-2.1c-1.9 5-1.1 14.4-1 21.1h7.2c-.1 6.7-.9 16 1 21.1h6.2v-14.1h6.2c.9 1.1-.1.2 1 1 .1 6.2.7 14.5-1 19.1h-27.8v14h7.2v5h28.8v-39.2h-7.2v-7h-7.2v-7zm7.2 47.2c-2.1.6-.9-.1-2.1 1-2.7-.1-3.5-.4-5.1-1v-6c5.3.1 4 .4 7.2 2v4zm-719.7-60.3h-1v3h1v-3zm1.1 8.1h7.2v-8c-4.2.6-2.6.4-7.2 0v8zm85.3 1h-1c.3-10.5.6-8.8-7.2-8v7c1.8.1 3.8 1 4.1 1v-1h2.1v3h1v-1h1v-1zm4.1-2.1h1v-7h-1v7zm242.6-6v-1h-2.1c1.2 1.1.1.4 2.1 1zm28.8 6c6.9 0 10.7.4 14.4 1v-8h-14.4v7zm-294-6h-2.1v2h2.1v-2zm18.5 0v2h1c-.6-2 .2-.8-1-2zm634.3 2h1c-.6-2 .1-.9-1-2v2zm-9.2-1h-2.1v2h2.1v-2zm-702.2 1v2h1c-.6-2 .2-.8-1-2zm22.6 1h3.1v-1h-3.1v1zm-215.9 2v-1h-2.1c1.2 1.2.1.5 2.1 1zm183 2.1h1v-3h-1v3zm87.4-3.1v2h1c-.6-2 .2-.8-1-2zm-18.5 2v-1h-2.1c1.2 1.2 0 .5 2.1 1zm278.6-1v2h1c-.6-2 .2-.8-1-2zm363.9 0v1h-1v1h2.1c-.7-2 .1-.8-1.1-2zm-638.4 16.1l-1-1h-6.2c0-4.8.3-10.7-1-14.1-3.2 0-5.3.3-7.2 1 0 7 .5 16 0 20.1h7.2v20.1c3.9.7 3.3.7 7.2 0v-13.1h7.2v20.2h-28.8c1 2.6 1.1 7 1 11h20.6v-3l1-1h5.1v1h1v3h7.2v-32.1h-2.1v1h-1v-1h-4.1v-6h-7.2c.4-2.1.8-4.1 1.1-6.1zm5.2-15.1h-6.2v8h7.2v13.1h7.2v-14.1h-7.2c0-3-.3-5.1-1-7zm3 2.1v4h1v-4h-1zm237.5 2h-1v1h2.1c-.6-2 .1-.9-1-2v1zm22.6 0v-1h-2.1c1.2 1.1.1.4 2.1 1zm-271.4 3v1l-1 1h2.1c-.7-2 .1-.9-1.1-2zm17.5 10h1v-8h-1v8zm243.6-7c.9 1.1-.1.2 1 1v-2h-2.1c1 1.1 0 .1 1.1 1zm386.6 0v-1h-2.1c1.2 1.1 0 .4 2.1 1zm-387.6 5h2.1c-.6-2 .1-.9-1-2v1h-1v1zm391.7 3h1c-.6-2 .1-.9-1-2v2zm-643.5 1v-2c-1.6.6-1.7.8-4.1 1v2h3.1v-1h1zm247.7 1h1v-3h-1v3zm7.2-2v-1h-2.1c1.2 1.1 0 .4 2.1 1zm371.1-1v16.1h1c1.2-1.8-.4-15.5-1-16.1zm-363.9 5h-1v1h2.1c-.6-2 .1-.9-1-2v1zm-279.6 0v2c2.1-.6.9.1 2.1-1h-1c-1-1.1 0-.1-1.1-1zm3.1 19.1c1.1-1.8-.4-15.4-1-16.1v16.1h1zm197.3-16s-.1 3.9-1 2v-1h-1c-.9 2.3-1.1 4.4-1 8h8.2c-.4-4-1.2-3.6 0-7-1.9-.9-2.7-1.6-5.2-2zm49.4 1c.9 1.1-.1.2 1 1v-2h-2.1c.9 1.1-.1.1 1.1 1zm37 1h1c-.6-2 .1-.9-1-2v2zm311.5 0h1c-.6-2 .1-.9-1-2v2zm3.1 0h1c-.6-2 .1-.9-1-2v2zm30.8 4h-1v3c3.7 0 5.8-.1 8.2-1v-6h-1v-2h-1v1c-2.9 0-4.4.4-6.2 1 .1 1.7 1.1 3.6 1 4zm25.7-6h-1v8h1v-8zm-60.6 8v-7h-14.4c0 3.6.1 5.7 1 8 4.7 0 10.2.2 13.4-1zm13.3 20.1c-1.6.8-2.5.9-5.1 1-.9-1.1.1-.2-1-1v-6l6.2 1c1.2-6.2 1.2-15.9 0-22.1-4 .4-3 1-6.2 0-.7 1.9-1.1 3.9-1 7-3.2 0-5.3.3-7.2 1l1 6c-.2 1.4-1-.4-1 1h1c0 2.9-.4 4.3-1 6-4.7 0-10.2.2-13.4-1-.1-5.8 0-9.1 1-12.1h-1v-1c-3.2 0-5.3.3-7.2 1v13.1h7.2v12.1h14.4v-5h6.2v5h8.2l-1-3h1v-2h-1v-1zm18.5-26.1v2h1c-.6-2 .2-.9-1-2zm-358.8 2v1h-1v1h2.1c-.6-2 .1-.9-1.1-2zm-10.2 4c-3.2 0-5.3.3-7.2 1 .7 3.8.5 3.5 1 7 4.1-.4 3-1 6.2 0 .9-1.1-.1-.2 1-1v-7l2.1 1v-2h-3.1v1zm-480.1 4h1v-4h-1v4zm11.3 0h1v-4h-1v4zm221-4v8h1v-8h-1zm14.4 26.1c1.6-1.7 1.6-24.4 0-26.1v26.1zm185.1-18.1c2.5-.1 2.9-1 4.1-1v1l3.1 1v-9h-7.2v8zm14.3-8c-1.2 3.1-1.3 4.9 0 8 1.8-.1 3.8-1 4.1-1v1h2.1c.9-1.1-.1-.2 1-1 0-3.1-.3-5.2-1-7h-6.2zm454.4 26.1h14.4v-26.1h-14.4v26.1zm-898.5-24.1v6h8.2c0-3.1-.3-5.2-1-7-3.2 0-5.3.3-7.2 1zm173.8-1h-14.4c0 3.6.1 5.7 1 8 5 0 9.7-.4 13.4-1v-7zm6.1 1l1 6h-7.2c0 4.8.3 10.7-1 14.1-3.7.1-10.3.8-12.3-1h-1c-1.1-2.1 1.2-2.9 1-4h-1v-1h1v-4h-1l1-3-1-1c-3.2 0-5.3.3-7.2 1v13h7.2v4h21.6v-4h7.2c.1-6.7.9-16-1-21.1-3.2 0-5.3.3-7.3 1zm28.8 7c3.2 0 5.3-.3 7.2-1v-7h-7.2v1h-2.1c.9 1.9 1.6 2.6 2.1 5h-2.1v1c2 .7 1.2-.7 2.1 1zm218-5v1h1v1h1v-4h-1l-1 2zm-224.1-1v2h1c-.6-2 .1-.9-1-2zm673.3 0v2h1c-.6-2 .2-.9-1-2zm-700.1 3h1c-.6-2 .1-.9-1-2v2zm321.8-1v-1h-2.1c1.2 1.1 0 .4 2.1 1zm314.6 1h1c-.6-2 .1-.9-1-2v2zm59.6 0h4.1v-1h-4.1v1zm-873.8 0v2h1c-.6-2 .1-.8-1-2zm194.3 10.1h1v-8h-1v8zm64.7 10h14.4v-18.1h-14.4v18.1zm657-18.1v18.1c1.9-2 1.9-16.1 0-18.1zm-101.8 4v-2h-2.1v2h2.1zm-374.2 1h1v2h1v-3c-2 .6-.9-.1-2 1zm-203.6 1c-2.4-2.1-19.7-1.1-24.7-1 2.4 2.1 19.7 1.2 24.7 1zm195.4 7.1h7.2v-7c-2.9 0-4.4-.4-6.2-1-.9 2.2-1.1 4.4-1 8zm-534.6-5s1.8.5 1 2h-1c.2 2.4.4 2.5 1 4h7.2v-7c-3.2 0-5.3-.3-7.2-1-.3.6-.7 1.3-1 2zm610.6 5h8.2v-7h-8.2v7zm-142.9 1c3.7 0 5.8-.1 8.2-1v-6h-8.2v7zm433.9-7c1.2 1.1 0 .4 2.1 1v-1h-2.1zm-606.6 4h1l1-3h-2.1v3zm168.6-2h1v2h1v-3c-2 .6-.8-.2-2 1zm440 9h1c1.3-2.1-.3-9.3-1-10v10zm25.7-7v-3h-1v3h1zm22.6 1h1v-3h-1v3zm-676.4 0v-1h-2.1c1.2 1.1 0 .4 2.1 1zm672.3 2h1v-3h-1v3zm6.2 1h-1v-2h-1v3c-.1 0 3.9-.1 2-1zm-339.3 0v-1h-2.1c1.2 1.1.1.4 2.1 1zm345.5 0v-1h-2.1c1.2 1.1 0 .4 2.1 1zm-35 1v-1h-2.1c1.2 1.1 0 .4 2.1 1zm-667.2 0v2h1c-.6-2 .2-.9-1-2zm4.1 0v2h1c-.6-2 .2-.9-1-2zm24.7 0v2h1c-.6-2 .2-.9-1-2zm48.3 0v2h1c-.6-2 .2-.9-1-2zm564.4 0v2h1c-.6-2 .2-.9-1-2z"/></svg>