<!DOCTYPE svg PUBLIC "-//W3C//DTD SVG 1.1//EN" "http://www.w3.org/Graphics/SVG/1.1/DTD/svg11.dtd" [
	<!ENTITY ns_flows "http://ns.adobe.com/Flows/1.0/">
]><svg xmlns="http://www.w3.org/2000/svg" width="454" height="263" viewBox="0 0 454 263" overflow="visible"><path fill="#8A1002" d="M0 215.1h23.9v23.9h-23.9z"/><path fill="#E30613" d="M0 239h23.9v23.9h-23.9z"/><path d="M23.9 215.1h23.9v23.9h-23.9z"/><path fill="#E6007E" d="M23.9 239h23.9v23.9h-23.9zM71.7 215.1h23.9v23.9h-23.9z"/><path fill="#E30613" d="M71.7 239h23.9v23.9h-23.9z"/><path fill="#E6007E" d="M71.7 191.2h23.9v23.9h-23.9zM71.7 167.3h23.9v23.9h-23.9z"/><path fill="#E30613" d="M71.7 143.4h23.9v23.9h-23.9z"/><path fill="#E6007E" d="M71.7 119.5h23.9v23.9h-23.9z"/><path d="M71.7 95.6h23.9v23.9h-23.9z"/><path fill="#E6007E" d="M71.7 71.7h23.9v23.9h-23.9zM71.7 47.8h23.9v23.9h-23.9zM71.7 23.9h23.9v23.9h-23.9zM71.7 0h23.9v23.9h-23.9z"/><path fill="#E30613" d="M95.6 215.1h23.9v23.9h-23.9z"/><path fill="#E6007E" d="M95.6 239h23.9v23.9h-23.9zM95.6 191.2h23.9v23.9h-23.9z"/><path fill="#8A1002" d="M95.6 167.3h23.9v23.9h-23.9zM95.6 143.4h23.9v23.9h-23.9zM95.6 119.5h23.9v23.9h-23.9z"/><path fill="#E6007E" d="M119.5 119.5h23.9v23.9h-23.9zM143.4 119.5h23.9v23.9h-23.9z"/><path d="M95.6 95.6h23.9v23.9h-23.9z"/><path fill="#E6007E" d="M119.5 95.6h23.9v23.9h-23.9zM143.4 95.6h23.9v23.9h-23.9z"/><path fill="#8A1002" d="M95.6 71.7h23.9v23.9h-23.9zM95.6 47.8h23.9v23.9h-23.9zM95.6 23.9h23.9v23.9h-23.9z"/><path d="M95.6 0h23.9v23.9h-23.9z"/><path fill="#E6007E" d="M167.3 215.1h23.9v23.9h-23.9zM167.3 239h23.9v23.9h-23.9zM167.3 191.2h23.9v23.9h-23.9z"/><path fill="#E30613" d="M167.3 167.3h23.9v23.9h-23.9z"/><path fill="#E6007E" d="M167.3 143.4h23.9v23.9h-23.9zM167.3 119.5h23.9v23.9h-23.9z"/><path fill="#E30613" d="M191.2 215.1h23.9v23.9h-23.9z"/><path fill="#E6007E" d="M191.2 239h23.9v23.9h-23.9zM191.2 191.2h23.9v23.9h-23.9zM191.2 167.3h23.9v23.9h-23.9zM191.2 143.4h23.9v23.9h-23.9z"/><path fill="#E30613" d="M239 215.1h23.9v23.9h-23.9z"/><path d="M239 239h23.9v23.9h-23.9z"/><path fill="#E30613" d="M239 191.2h23.9v23.9h-23.9zM239 167.3h23.9v23.9h-23.9zM239 143.4h23.9v23.9h-23.9z"/><path fill="#E6007E" d="M239 119.5h23.9v23.9h-23.9zM239 95.6h23.9v23.9h-23.9z"/><path fill="#8A1002" d="M239 23.9h23.9v23.9h-23.9z"/><path fill="#E6007E" d="M239 0h23.9v23.9h-23.9z"/><path d="M262.9 215.1h23.9v23.9h-23.9zM262.9 239h23.9v23.9h-23.9z"/><path fill="#E6007E" d="M262.9 191.2h23.9v23.9h-23.9zM262.9 167.3h23.9v23.9h-23.9z"/><path d="M262.9 143.4h23.9v23.9h-23.9zM262.9 119.5h23.9v23.9h-23.9z"/><path fill="#E6007E" d="M262.9 95.6h23.9v23.9h-23.9zM262.9 23.9h23.9v23.9h-23.9zM262.9 0h23.9v23.9h-23.9zM310.7 191.2h23.9v23.9h-23.9zM310.7 167.3h23.9v23.9h-23.9zM310.7 143.4h23.9v23.9h-23.9zM310.7 119.5h23.9v23.9h-23.9z"/><path fill="#8A1002" d="M310.7 95.6h23.9v23.9h-23.9z"/><path fill="#E6007E" d="M334.6 215.1h23.9v23.9h-23.9z"/><path fill="#E30613" d="M334.6 191.2h23.9v23.9h-23.9z"/><path fill="#8A1002" d="M334.6 167.3h23.9v23.9h-23.9z"/><path fill="#E30613" d="M334.6 143.4h23.9v23.9h-23.9zM334.6 119.5h23.9v23.9h-23.9z"/><path fill="#E6007E" d="M334.6 95.6h23.9v23.9h-23.9zM358.5 215.1h23.9v23.9h-23.9zM358.5 239h23.9v23.9h-23.9zM382.4 215.1h23.9v23.9h-23.9z"/><path fill="#E30613" d="M382.4 239h23.9v23.9h-23.9z"/><path d="M406.2 215.1h23.9v23.9h-23.9zM406.2 191.2h23.9v23.9h-23.9zM406.2 167.3h23.9v23.9h-23.9z"/><path fill="#E30613" d="M406.2 143.4h23.9v23.9h-23.9z"/><path fill="#E6007E" d="M406.2 119.5h23.9v23.9h-23.9zM406.2 95.6h23.9v23.9h-23.9z"/><path fill="#E30613" d="M430.1 191.2h23.9v23.9h-23.9z"/><path fill="#E6007E" d="M430.1 167.3h23.9v23.9h-23.9zM430.1 143.4h23.9v23.9h-23.9zM430.1 119.5h23.9v23.9h-23.9zM430.1 95.6h23.9v23.9h-23.9z"/></svg>